<svg xmlns="http://www.w3.org/2000/svg" id="svg14" version="1.1" viewBox="0 0 32 32">
  <defs id="defs3051">
    <style id="current-color-scheme" type="text/css">.ColorScheme-Text{color:#31363b}</style>
  </defs>
  <path id="path4" d="M2 3v7H1v19h30V8h-1V5H16l-2-2H2z" style="fill:#aa35e0;fill-opacity:1;stroke:none;color:#3daee9"/>
  <path id="path6" d="M2 3v7h9l2-2h17V5H16l-2-2H2Z" style="fill-opacity:.33;fill-rule:evenodd"/>
  <path id="path8" d="m14 3 1 3h15V5H16l-2-2zm-1 5-2 2H1v1h11l1-3z" style="fill:#fff;fill-opacity:.2;fill-rule:evenodd"/>
  <path id="path10" d="m13 8-2 1H2v1h9l2-2zM1 28v1h30v-1H1z" class="ColorScheme-Text" style="fill-opacity:.2;fill-rule:evenodd"/>
  <path id="path12" d="M16.473 10a.26.26 0 0 0-.256.209l-.194 1.326a3.95 3.95 0 0 0-.869.492l-1.279-.502a.256.256 0 0 0-.312.108l-1.028 1.732a.245.245 0 0 0 .06.32l1.085.827c-.02.16-.037.323-.037.488 0 .165.016.328.037.488l-1.082.826a.247.247 0 0 0-.06.32l1.026 1.733a.26.26 0 0 0 .313.108l1.281-.502c.264.199.554.364.867.492l.194 1.326c.02.117.125.209.254.209h2.056a.255.255 0 0 0 .254-.209l.194-1.326a3.95 3.95 0 0 0 .869-.492l1.279.502c.115.045.249 0 .313-.108l1.027-1.732a.245.245 0 0 0-.06-.32l-1.085-.827c.02-.16.037-.323.037-.488 0-.165-.016-.328-.037-.488l1.084-.826a.247.247 0 0 0 .06-.32l-1.026-1.733a.26.26 0 0 0-.313-.108l-1.28.502a3.867 3.867 0 0 0-.868-.492l-.194-1.326A.256.256 0 0 0 18.53 10h-2.056zm1.025 3.25c.994 0 1.799.783 1.799 1.75s-.805 1.75-1.799 1.75c-.994 0-1.799-.783-1.799-1.75s.805-1.75 1.799-1.75zm-4.936 5.254a.165.165 0 0 0-.119.017l-1.222.686a.185.185 0 0 0-.084.217l.328.894c-.144.185-.26.388-.352.6l-.93.11a.176.176 0 0 0-.15.171L10 22.63c-.002.09.06.165.143.18l.923.156c.042.107.088.214.143.318.055.104.118.202.184.295l-.37.879a.18.18 0 0 0 .07.22l1.19.745a.172.172 0 0 0 .223-.037l.594-.74c.223.037.453.044.681.02l.557.767c.051.066.144.09.22.047l1.223-.686a.18.18 0 0 0 .082-.215l-.328-.896a2.75 2.75 0 0 0 .352-.598l.93-.111a.176.176 0 0 0 .15-.172L17 21.373a.175.175 0 0 0-.143-.18l-.921-.158a2.885 2.885 0 0 0-.143-.318 2.887 2.887 0 0 0-.184-.295l.37-.879a.18.18 0 0 0-.07-.22l-1.19-.745a.172.172 0 0 0-.223.037l-.594.74a2.52 2.52 0 0 0-.681-.02l-.557-.767a.176.176 0 0 0-.101-.064zm.819 2.252c.473-.049.95.19 1.191.644a1.267 1.267 0 0 1-.486 1.698 1.203 1.203 0 0 1-1.654-.498 1.267 1.267 0 0 1 .486-1.698c.148-.082.305-.13.463-.146z" class="ColorScheme-Text" style="fill:#302932;fill-opacity:.6;stroke:none"/>
</svg>