<svg xmlns="http://www.w3.org/2000/svg" width="341.333" height="341.333"><defs><filter id="a" style="color-interpolation-filters:sRGB"><feGaussianBlur in="SourceGraphic" result="result0" stdDeviation="5"/><feDiffuseLighting lighting-color="#FEFEFE" result="result5" surfaceScale="10"><feDistantLight azimuth="235" elevation="13"/></feDiffuseLighting><feComposite in="result5" in2="SourceGraphic" k1="1" k3=".6" operator="arithmetic" result="result4"/></filter></defs><path d="M197.059 132.169h345.19v133.062h-345.19z" style="opacity:1;fill:#fff;fill-opacity:1;fill-rule:nonzero;stroke:#dcdcdc;stroke-width:1.00157475;stroke-linecap:round;stroke-linejoin:round;stroke-miterlimit:4;stroke-dasharray:none;stroke-dashoffset:0;stroke-opacity:1;paint-order:markers fill stroke" transform="translate(-197.702 76.745)"/><path d="M198.189 125.784h340.856v138.317H198.189z" style="opacity:.98000004;fill:maroon;fill-opacity:1;stroke:maroon;stroke-width:2.02626538;stroke-linejoin:round;stroke-miterlimit:4;stroke-dasharray:none;stroke-opacity:1" transform="translate(-197.702 76.745)"/><g style="stroke-width:1.23122787"><g style="stroke-width:.91896802" transform="matrix(-1.32975 0 0 1.32978 659.612 45.732)"><path d="m-52.15 538.877 194.393.855m-97.56 101.571.731-205.043m-59.895 22.752c31.827 45.91 31.59 112.337-.564 157.967m119.626.526c-31.826-45.91-31.59-112.337.564-157.967m-156.997 79.006c47.256-61.201 147.653-60.441 194.481 1.184m-.314.222c-47.256 61.201-147.339 60.443-194.168-1.183" style="fill:none;stroke:#9dab89;stroke-width:11.69420052;stroke-opacity:1;filter:url(#a)" transform="translate(328.472 -371.964)scale(.86566)"/><ellipse cx="-466.943" cy="438.428" rx="17.87" ry="17.92" style="fill:#9dab89;fill-opacity:1;stroke:#9dab89;stroke-width:.07285793;filter:url(#a)" transform="matrix(-.62398 -.60002 -.5758 .6464 328.472 -371.964)"/><ellipse cx="-478.924" cy="278.434" rx="17.87" ry="17.92" style="fill:#9dab89;fill-opacity:1;stroke:#9dab89;stroke-width:.07285793;filter:url(#a)" transform="matrix(-.62398 -.60002 -.5758 .6464 328.472 -371.964)"/><ellipse cx="-306.635" cy="436.624" rx="17.87" ry="17.92" style="fill:#9dab89;fill-opacity:1;stroke:#9dab89;stroke-width:.07285793;filter:url(#a)" transform="matrix(-.62398 -.60002 -.5758 .6464 328.472 -371.964)"/><ellipse cx="-399.743" cy="466.781" rx="17.87" ry="17.92" style="fill:#9dab89;fill-opacity:1;stroke:#9dab89;stroke-width:.07285793;filter:url(#a)" transform="matrix(-.62398 -.60002 -.5758 .6464 328.472 -371.964)"/><ellipse cx="-281.893" cy="340.652" rx="17.87" ry="17.92" style="fill:#9dab89;fill-opacity:1;stroke:#9dab89;stroke-width:.07285793;filter:url(#a)" transform="matrix(-.62398 -.60002 -.5758 .6464 328.472 -371.964)"/><ellipse cx="-385.005" cy="247.763" rx="17.87" ry="17.92" style="fill:#9dab89;fill-opacity:1;stroke:#9dab89;stroke-width:.07285793;filter:url(#a)" transform="matrix(-.62398 -.60002 -.5758 .6464 328.472 -371.964)"/><ellipse cx="-500.973" cy="375.022" rx="17.87" ry="17.92" style="fill:#4c0000;fill-opacity:1;stroke:#9dab89;stroke-width:.07285793;filter:url(#a)" transform="matrix(-.62398 -.60002 -.5758 .6464 328.472 -371.964)"/><ellipse cx="-500.973" cy="375.022" rx="17.87" ry="17.92" style="fill:#9dab89;fill-opacity:1;stroke:#9dab89;stroke-width:.07285793;filter:url(#a)" transform="matrix(-.62398 -.60002 -.5758 .6464 328.472 -371.964)"/><ellipse cx="-317.022" cy="275.431" rx="17.87" ry="17.92" style="fill:#9dab89;fill-opacity:1;stroke:#9dab89;stroke-width:.07285793;filter:url(#a)" transform="matrix(-.62398 -.60002 -.5758 .6464 328.472 -371.964)"/></g></g></svg>