<svg xmlns="http://www.w3.org/2000/svg" xmlns:xlink="http://www.w3.org/1999/xlink" xml:space="preserve" width="64mm" height="64mm" viewBox="0 0 64 64"><defs><linearGradient id="a" x1="129" x2="129" y1="11" y2="245" gradientUnits="userSpaceOnUse"><stop offset="0" style="stop-color:#494949"/><stop offset="1" style="stop-color:#000"/></linearGradient><linearGradient id="b"><stop offset="0" style="stop-color:#000;stop-opacity:1"/><stop offset="1" style="stop-color:#000;stop-opacity:0"/></linearGradient><linearGradient xlink:href="#a" id="c" x1="129" x2="129" y1="11" y2="245" gradientTransform="translate(-110.52 130.54)scale(.23151)" gradientUnits="userSpaceOnUse"/><linearGradient xlink:href="#b" id="d" x1="20.781" x2="20.813" y1="24.594" y2="23.531" gradientUnits="userSpaceOnUse"/><linearGradient xlink:href="#a" id="e" x1="129" x2="129" y1="11" y2="245" gradientTransform="translate(-110.52 130.54)scale(.23151)" gradientUnits="userSpaceOnUse"/><linearGradient xlink:href="#b" id="f" x1="20.781" x2="20.813" y1="24.594" y2="23.531" gradientUnits="userSpaceOnUse"/><linearGradient xlink:href="#a" id="g" x1="129" x2="129" y1="11" y2="245" gradientTransform="translate(-110.52 130.54)scale(.23151)" gradientUnits="userSpaceOnUse"/><linearGradient xlink:href="#b" id="h" x1="20.781" x2="20.813" y1="24.594" y2="23.531" gradientUnits="userSpaceOnUse"/></defs><g style="stroke-width:3.02775"><g style="stroke-width:3.02775"><g style="stroke-width:3.02775"><path d="M-100.334 134.128a3.94 3.94 0 0 0-3.935 3.935v46.302a3.94 3.94 0 0 0 3.935 3.936h40.746a3.94 3.94 0 0 0 3.936-3.936v-46.302a3.94 3.94 0 0 0-3.936-3.935z" style="opacity:.2;stroke-width:.700955" transform="translate(73.792 -68.123)scale(.59001)"/><path d="M-100.797 133.665a3.94 3.94 0 0 0-3.935 3.935v46.302a3.94 3.94 0 0 0 3.935 3.936h40.746a3.94 3.94 0 0 0 3.936-3.936V137.6a3.94 3.94 0 0 0-3.936-3.935z" style="opacity:.2;stroke-width:.700955" transform="translate(73.792 -68.123)scale(.59001)"/><path d="M-101.26 133.433a3.94 3.94 0 0 0-3.935 3.936v46.302a3.94 3.94 0 0 0 3.935 3.936h40.746a3.94 3.94 0 0 0 3.936-3.936v-46.302a3.94 3.94 0 0 0-3.936-3.936z" style="opacity:.2;stroke-width:.700955" transform="translate(73.792 -68.123)scale(.59001)"/><path d="M-101.028 133.086a3.94 3.94 0 0 0-3.936 3.936v46.302a3.94 3.94 0 0 0 3.936 3.935h40.746a3.94 3.94 0 0 0 3.935-3.935v-46.302a3.94 3.94 0 0 0-3.935-3.936z" style="fill:url(#c);stroke-width:.700955" transform="translate(73.792 -68.123)scale(.59001)"/><path d="M-104.038 183.324a2.778 2.778 0 0 0 2.778 2.778h40.746a2.778 2.778 0 0 0 2.778-2.778v-46.302a2.778 2.778 0 0 0-2.778-2.779h-40.746a2.778 2.778 0 0 0-2.778 2.779z" style="fill:#fff;stroke-width:.700955" transform="translate(73.792 -68.123)scale(.59001)"/><path d="M-110.52 130.539h59.267v59.267h-59.267z" style="fill:none;stroke-width:.700955" transform="translate(73.792 -68.123)scale(.59001)"/><path d="M11.781 19.5c-.179 0-.27.018-.304.027-.034.01-.014-.001-.043.022-.006.004-.109.1-.211.396L9.803 24.5H37.12l-1.43-4.344c-.191-.476-.262-.517-.314-.552-.07-.048-.143-.104-.565-.104Z" style="color:#000;display:block;overflow:visible;visibility:visible;opacity:.15;fill:none;stroke:url(#d);stroke-width:3.02775;stroke-linecap:butt;stroke-linejoin:miter;stroke-miterlimit:4;stroke-dashoffset:0;stroke-opacity:1;marker:none" transform="translate(8.583 9.033)scale(.1366)"/><path d="M-104.038 183.324a2.778 2.778 0 0 0 2.778 2.778h40.746a2.778 2.778 0 0 0 2.778-2.778v-46.302a2.778 2.778 0 0 0-2.778-2.779h-40.746a2.778 2.778 0 0 0-2.778 2.779z" style="fill:#fff;stroke-width:.700955" transform="translate(73.792 -68.123)scale(.59001)"/></g><g style="stroke-width:3.02775" transform="translate(51.144 -117.883)scale(.59001)"><rect width="38.046" height="22.207" x="-61.419" y="-267.66" rx="3.593" ry="4.043" style="fill:maroon;fill-opacity:1;stroke:none;stroke-width:.377279" transform="scale(1 -1)"/><text xml:space="preserve" x="-53.482" y="261.839" style="font-style:normal;font-variant:normal;font-weight:400;font-stretch:condensed;font-size:13.8677px;line-height:100%;font-family:Impact;-inkscape-font-specification:&quot;Impact, Condensed&quot;;font-variant-ligatures:normal;font-variant-caps:normal;font-variant-numeric:normal;font-feature-settings:normal;text-align:start;letter-spacing:0;word-spacing:0;writing-mode:lr-tb;text-anchor:start;fill:#fff;fill-opacity:1;stroke:none;stroke-width:.53509px;stroke-linecap:butt;stroke-linejoin:miter;stroke-opacity:1"><tspan x="-53.482" y="261.839" style="stroke-width:.53509px">SQL</tspan></text></g></g><g style="stroke-width:3.02775"><g style="stroke-width:3.02775"><path d="M-100.334 134.128a3.94 3.94 0 0 0-3.935 3.935v46.302a3.94 3.94 0 0 0 3.935 3.936h40.746a3.94 3.94 0 0 0 3.936-3.936v-46.302a3.94 3.94 0 0 0-3.936-3.935z" style="opacity:.2;stroke-width:.700955" transform="translate(79.41 -62.192)scale(.59001)"/><path d="M-100.797 133.665a3.94 3.94 0 0 0-3.935 3.935v46.302a3.94 3.94 0 0 0 3.935 3.936h40.746a3.94 3.94 0 0 0 3.936-3.936V137.6a3.94 3.94 0 0 0-3.936-3.935z" style="opacity:.2;stroke-width:.700955" transform="translate(79.41 -62.192)scale(.59001)"/><path d="M-101.26 133.433a3.94 3.94 0 0 0-3.935 3.936v46.302a3.94 3.94 0 0 0 3.935 3.936h40.746a3.94 3.94 0 0 0 3.936-3.936v-46.302a3.94 3.94 0 0 0-3.936-3.936z" style="opacity:.2;stroke-width:.700955" transform="translate(79.41 -62.192)scale(.59001)"/><path d="M-101.028 133.086a3.94 3.94 0 0 0-3.936 3.936v46.302a3.94 3.94 0 0 0 3.936 3.935h40.746a3.94 3.94 0 0 0 3.935-3.935v-46.302a3.94 3.94 0 0 0-3.935-3.936z" style="fill:url(#e);stroke-width:.700955" transform="translate(79.41 -62.192)scale(.59001)"/><path d="M-104.038 183.324a2.778 2.778 0 0 0 2.778 2.778h40.746a2.778 2.778 0 0 0 2.778-2.778v-46.302a2.778 2.778 0 0 0-2.778-2.779h-40.746a2.778 2.778 0 0 0-2.778 2.779z" style="fill:#fff;stroke-width:.700955" transform="translate(79.41 -62.192)scale(.59001)"/><path d="M-110.52 130.539h59.267v59.267h-59.267z" style="fill:none;stroke-width:.700955" transform="translate(79.41 -62.192)scale(.59001)"/><path d="M11.781 19.5c-.179 0-.27.018-.304.027-.034.01-.014-.001-.043.022-.006.004-.109.1-.211.396L9.803 24.5H37.12l-1.43-4.344c-.191-.476-.262-.517-.314-.552-.07-.048-.143-.104-.565-.104Z" style="color:#000;display:block;overflow:visible;visibility:visible;opacity:.15;fill:none;stroke:url(#f);stroke-width:3.02775;stroke-linecap:butt;stroke-linejoin:miter;stroke-miterlimit:4;stroke-dashoffset:0;stroke-opacity:1;marker:none" transform="translate(14.203 14.965)scale(.1366)"/><path d="M-104.038 183.324a2.778 2.778 0 0 0 2.778 2.778h40.746a2.778 2.778 0 0 0 2.778-2.778v-46.302a2.778 2.778 0 0 0-2.778-2.779h-40.746a2.778 2.778 0 0 0-2.778 2.779z" style="fill:#fff;stroke-width:.700955" transform="translate(79.41 -62.192)scale(.59001)"/></g><g style="stroke-width:3.02775" transform="translate(56.764 -111.952)scale(.59001)"><rect width="38.046" height="22.207" x="-61.419" y="-267.66" rx="3.593" ry="4.043" style="fill:maroon;fill-opacity:1;stroke:none;stroke-width:.377279" transform="scale(1 -1)"/><text xml:space="preserve" x="-53.482" y="261.839" style="font-style:normal;font-variant:normal;font-weight:400;font-stretch:condensed;font-size:13.8677px;line-height:100%;font-family:Impact;-inkscape-font-specification:&quot;Impact, Condensed&quot;;font-variant-ligatures:normal;font-variant-caps:normal;font-variant-numeric:normal;font-feature-settings:normal;text-align:start;letter-spacing:0;word-spacing:0;writing-mode:lr-tb;text-anchor:start;fill:#fff;fill-opacity:1;stroke:none;stroke-width:.53509px;stroke-linecap:butt;stroke-linejoin:miter;stroke-opacity:1"><tspan x="-53.482" y="261.839" style="stroke-width:.53509px">SQL</tspan></text></g></g><g style="stroke-width:3.02775"><g style="stroke-width:3.02775"><path d="M-100.334 134.128a3.94 3.94 0 0 0-3.935 3.935v46.302a3.94 3.94 0 0 0 3.935 3.936h40.746a3.94 3.94 0 0 0 3.936-3.936v-46.302a3.94 3.94 0 0 0-3.936-3.935z" style="opacity:.2;stroke-width:.700955" transform="translate(85.656 -56.884)scale(.59001)"/><path d="M-100.797 133.665a3.94 3.94 0 0 0-3.935 3.935v46.302a3.94 3.94 0 0 0 3.935 3.936h40.746a3.94 3.94 0 0 0 3.936-3.936V137.6a3.94 3.94 0 0 0-3.936-3.935z" style="opacity:.2;stroke-width:.700955" transform="translate(85.656 -56.884)scale(.59001)"/><path d="M-101.26 133.433a3.94 3.94 0 0 0-3.935 3.936v46.302a3.94 3.94 0 0 0 3.935 3.936h40.746a3.94 3.94 0 0 0 3.936-3.936v-46.302a3.94 3.94 0 0 0-3.936-3.936z" style="opacity:.2;stroke-width:.700955" transform="translate(85.656 -56.884)scale(.59001)"/><path d="M-101.028 133.086a3.94 3.94 0 0 0-3.936 3.936v46.302a3.94 3.94 0 0 0 3.936 3.935h40.746a3.94 3.94 0 0 0 3.935-3.935v-46.302a3.94 3.94 0 0 0-3.935-3.936z" style="fill:url(#g);stroke-width:.700955" transform="translate(85.656 -56.884)scale(.59001)"/><path d="M-104.038 183.324a2.778 2.778 0 0 0 2.778 2.778h40.746a2.778 2.778 0 0 0 2.778-2.778v-46.302a2.778 2.778 0 0 0-2.778-2.779h-40.746a2.778 2.778 0 0 0-2.778 2.779z" style="fill:#fff;stroke-width:.700955" transform="translate(85.656 -56.884)scale(.59001)"/><path d="M-110.52 130.539h59.267v59.267h-59.267z" style="fill:none;stroke-width:.700955" transform="translate(85.656 -56.884)scale(.59001)"/><path d="M11.781 19.5c-.179 0-.27.018-.304.027-.034.01-.014-.001-.043.022-.006.004-.109.1-.211.396L9.803 24.5H37.12l-1.43-4.344c-.191-.476-.262-.517-.314-.552-.07-.048-.143-.104-.565-.104Z" style="color:#000;display:block;overflow:visible;visibility:visible;opacity:.15;fill:none;stroke:url(#h);stroke-width:3.02775;stroke-linecap:butt;stroke-linejoin:miter;stroke-miterlimit:4;stroke-dashoffset:0;stroke-opacity:1;marker:none" transform="translate(20.447 20.273)scale(.1366)"/><path d="M-104.038 183.324a2.778 2.778 0 0 0 2.778 2.778h40.746a2.778 2.778 0 0 0 2.778-2.778v-46.302a2.778 2.778 0 0 0-2.778-2.779h-40.746a2.778 2.778 0 0 0-2.778 2.779z" style="fill:#fff;stroke-width:.700955" transform="translate(85.656 -56.884)scale(.59001)"/></g><g style="stroke-width:3.02775" transform="translate(63.009 -106.643)scale(.59001)"><rect width="38.046" height="22.207" x="-61.419" y="-267.66" rx="3.593" ry="4.043" style="fill:maroon;fill-opacity:1;stroke:none;stroke-width:.377279" transform="scale(1 -1)"/><text xml:space="preserve" x="-53.482" y="261.839" style="font-style:normal;font-variant:normal;font-weight:400;font-stretch:condensed;font-size:13.8677px;line-height:100%;font-family:Impact;-inkscape-font-specification:&quot;Impact, Condensed&quot;;font-variant-ligatures:normal;font-variant-caps:normal;font-variant-numeric:normal;font-feature-settings:normal;text-align:start;letter-spacing:0;word-spacing:0;writing-mode:lr-tb;text-anchor:start;fill:#fff;fill-opacity:1;stroke:none;stroke-width:.53509px;stroke-linecap:butt;stroke-linejoin:miter;stroke-opacity:1"><tspan x="-53.482" y="261.839" style="stroke-width:.53509px">SQL</tspan></text></g></g></g></svg>