<svg xmlns="http://www.w3.org/2000/svg" xmlns:xlink="http://www.w3.org/1999/xlink" xml:space="preserve" width="100mm" height="150mm" viewBox="0 0 100 150"><defs><linearGradient id="c" x1="94.524" x2="157.156" y1="116.933" y2="179.565" gradientTransform="translate(-317.124 488.095)scale(.49587)" gradientUnits="userSpaceOnUse"><stop offset="0" style="stop-color:#093"/><stop offset=".455" style="stop-color:#006a00"/><stop offset="1" style="stop-color:#033"/></linearGradient><linearGradient id="a" x1="139.866" x2="202.497" y1="75.714" y2="138.345" gradientTransform="translate(-317.124 481.745)scale(.49587)" gradientUnits="userSpaceOnUse"><stop offset="0" style="stop-color:#e14e30"/><stop offset=".472" style="stop-color:#ff5b00"/><stop offset="1" style="stop-color:#c51700"/></linearGradient><linearGradient id="b" x1="50.099" x2="112.73" y1="75.943" y2="138.574" gradientTransform="translate(-317.124 481.745)scale(.49587)" gradientUnits="userSpaceOnUse"><stop offset="0" style="stop-color:#900"/><stop offset=".455" style="stop-color:#7c0000"/><stop offset="1" style="stop-color:#600000"/></linearGradient><linearGradient xlink:href="#a" id="d" x1="139.866" x2="202.497" y1="75.714" y2="138.345" gradientTransform="translate(-411.952 501.414)scale(.44463)" gradientUnits="userSpaceOnUse"/><linearGradient xlink:href="#g" id="e" x1="385.976" x2="498.108" y1="1061.968" y2="1056.065" gradientTransform="translate(-249.29 143.588)scale(.34432)" gradientUnits="userSpaceOnUse"/><linearGradient xlink:href="#b" id="f" x1="50.099" x2="112.73" y1="75.943" y2="138.574" gradientTransform="translate(-411.952 501.414)scale(.44463)" gradientUnits="userSpaceOnUse"/><linearGradient xlink:href="#i" id="h" x1="152.205" x2="264.341" y1="1062.563" y2="1056.66" gradientTransform="translate(-249.29 143.588)scale(.34432)" gradientUnits="userSpaceOnUse"/><linearGradient xlink:href="#c" id="j" x1="94.524" x2="157.156" y1="116.933" y2="179.565" gradientTransform="translate(-411.952 507.108)scale(.44463)" gradientUnits="userSpaceOnUse"/><linearGradient xlink:href="#k" id="l" x1="267.897" x2="380.034" y1="1169.309" y2="1163.406" gradientTransform="translate(-249.29 142.264)scale(.34432)" gradientUnits="userSpaceOnUse"/></defs><g transform="translate(353.575 -904.105)scale(1.7864)"><g style="stroke-width:3.02775"><path d="m-206.673 318.47-19.165 13.325c-.55.382-.897.996-.897 1.665v18.24c0 .675.333 1.307.89 1.688l19.186 13.096c.7.479 1.623.474 2.32-.01l19.184-13.344c.55-.382.878-1.009.878-1.678v-18.239c0-.676-.335-1.308-.894-1.69l-19.184-13.063a2.044 2.044 0 0 0-2.318.01zm-44.512.113-19.166 13.326c-.549.382-.897.995-.897 1.664v18.24c0 .674.334 1.307.892 1.687l19.185 13.097c.7.478 1.623.474 2.32-.01l19.185-13.345a2.045 2.045 0 0 0 .876-1.678v-18.238c0-.676-.334-1.309-.893-1.69l-19.185-13.064a2.044 2.044 0 0 0-2.317.011z" style="opacity:.2;stroke-width:.200273" transform="matrix(.3683 -.0058 .0058 .3683 -87.24 409.962)"/><path d="m-207.695 318.13-19.165 13.324c-.55.383-.897.996-.897 1.666v18.238c0 .675.333 1.308.891 1.687l19.186 13.098c.7.478 1.623.474 2.32-.01l19.184-13.345a2.045 2.045 0 0 0 .877-1.678v-18.238c0-.677-.335-1.309-.893-1.69l-19.186-13.064a2.043 2.043 0 0 0-2.317.011zm-44.512.112-19.166 13.326c-.55.382-.897.995-.897 1.664v18.238c0 .676.334 1.308.891 1.688l19.185 13.097c.7.479 1.624.474 2.32-.01l19.185-13.344c.55-.382.877-1.009.877-1.678v-18.238c0-.676-.335-1.308-.894-1.69l-19.184-13.064a2.044 2.044 0 0 0-2.317.011z" style="opacity:.2;stroke-width:.200273" transform="matrix(.3683 -.0058 .0058 .3683 -87.24 409.962)"/><path d="m-208.376 318.13-19.166 13.324c-.548.383-.896.996-.896 1.666v18.238c0 .675.334 1.308.891 1.687l19.185 13.098c.7.478 1.624.474 2.32-.01l19.185-13.345a2.045 2.045 0 0 0 .877-1.678v-18.238c0-.677-.334-1.309-.894-1.69l-19.185-13.064a2.044 2.044 0 0 0-2.317.011z" style="fill:#fff;stroke-width:.200273" transform="matrix(.3683 -.0058 .0058 .3683 -87.24 409.962)"/><path d="m-208.376 318.13-19.166 13.324c-.548.383-.896.996-.896 1.666v18.238c0 .675.334 1.308.891 1.687l19.185 13.098c.7.478 1.624.474 2.32-.01l19.185-13.345a2.045 2.045 0 0 0 .877-1.678v-18.238c0-.677-.334-1.309-.894-1.69l-19.185-13.064a2.044 2.044 0 0 0-2.317.011z" style="fill:url(#d);stroke-width:.200273" transform="matrix(.3683 -.0058 .0058 .3683 -87.24 409.962)"/><g style="stroke-width:.403886"><path d="m209.855 88.374-38.689 26.911-38.689-26.358 38.689-26.9z" style="fill:#fff;stroke-width:.403886" transform="rotate(-.9 32872.749 12549.136)scale(.18264)"/></g><g style="stroke-width:.403886"><path d="m209.855 88.374-38.689 26.911-38.689-26.358 38.689-26.9z" style="fill:url(#e);stroke-width:.403886" transform="rotate(-.9 32872.749 12549.136)scale(.18264)"/></g><g style="stroke-width:.403886"><path d="M171.166 115.285v36.78l38.689-26.91V88.374Z" style="fill:#ff6d00;stroke-width:.403886" transform="rotate(-.9 32872.749 12549.136)scale(.18264)"/></g><g style="stroke-width:.403886"><path d="m171.172 115.285-.006 36.78-38.689-26.411V88.873Z" style="fill:#ffa700;stroke-width:.403886" transform="rotate(-.9 32872.749 12549.136)scale(.18264)"/></g><path d="m-229.156 345.259-19.166 13.325c-.55.383-.896.996-.896 1.665v18.238c0 .675.333 1.308.891 1.688l19.185 13.097c.7.478 1.623.475 2.32-.01l19.184-13.345a2.045 2.045 0 0 0 .878-1.677V360c0-.675-.336-1.308-.894-1.689l-19.185-13.064a2.044 2.044 0 0 0-2.317.01z" style="opacity:.2;stroke-width:.200273" transform="matrix(.3683 -.0058 .0058 .3683 -87.24 409.962)"/><path d="m-252.889 318.242-19.165 13.326c-.55.382-.897.995-.897 1.664v18.238c0 .676.333 1.308.892 1.688l19.185 13.097c.7.479 1.623.474 2.319-.01l19.185-13.344a2.045 2.045 0 0 0 .877-1.678v-18.238c0-.676-.335-1.308-.894-1.69l-19.185-13.064a2.044 2.044 0 0 0-2.317.011z" style="fill:url(#f);stroke-width:.200273" transform="matrix(.3683 -.0058 .0058 .3683 -87.24 409.962)"/><g style="stroke-width:.403886"><path d="m120.089 88.603-38.69 26.911-38.691-26.358 38.691-26.9Z" style="fill:#fff;stroke-width:.403886" transform="rotate(-.9 32872.749 12549.136)scale(.18264)"/></g><g style="stroke-width:.403886"><path d="m120.089 88.603-38.69 26.911-38.691-26.358 38.691-26.9Z" style="fill:url(#h);stroke-width:.403886" transform="rotate(-.9 32872.749 12549.136)scale(.18264)"/></g><path d="m-230.178 344.918-19.166 13.325c-.55.382-.897.996-.897 1.665v18.239c0 .674.334 1.307.892 1.687l19.185 13.097c.7.478 1.623.474 2.32-.01l19.184-13.344c.549-.383.877-1.01.877-1.678V359.66c0-.677-.335-1.309-.893-1.69l-19.185-13.063a2.043 2.043 0 0 0-2.317.011z" style="opacity:.2;stroke-width:.200273" transform="matrix(.3683 -.0058 .0058 .3683 -87.24 409.962)"/><g style="stroke-width:.403886"><path d="M81.399 115.514v36.781l38.69-26.911V88.603Z" style="fill:#cf0000;stroke-width:.403886" transform="rotate(-.9 32872.749 12549.136)scale(.18264)"/></g><g style="stroke-width:.403886"><path d="m81.404 115.514-.005 36.781-38.691-26.413v-36.78Z" style="fill:red;stroke-width:.403886" transform="rotate(-.9 32872.749 12549.136)scale(.18264)"/></g><path d="m-230.86 344.918-19.165 13.325c-.55.382-.897.996-.897 1.665v18.239c0 .674.334 1.307.891 1.687l19.185 13.097c.7.478 1.623.474 2.32-.01l19.186-13.344c.549-.383.876-1.01.876-1.678V359.66c0-.677-.334-1.309-.894-1.69l-19.185-13.063a2.044 2.044 0 0 0-2.317.011z" style="fill:url(#j);stroke-width:.200273" transform="matrix(.3683 -.0058 .0058 .3683 -87.24 409.962)"/><path d="m87.134 166.874 38.691 26.412 38.691-26.911v-36.781l-38.691-26.347-38.652 26.873-.039-.027z" style="fill:#6c3;stroke-width:.403886" transform="matrix(.18262 -.00287 .00287 .18262 -193.1 520.448)"/><g style="stroke-width:.403886"><path d="m125.825 103.247 38.691 26.347-38.691 26.91-38.691-26.358z" style="fill:#fff;stroke-width:.403886" transform="matrix(.18262 -.00287 .00287 .18262 -193.1 520.448)"/></g><g style="stroke-width:.403886"><path d="m125.825 103.247 38.691 26.347-38.691 26.91-38.691-26.358z" style="fill:url(#l);stroke-width:.403886" transform="matrix(.18262 -.00287 .00287 .18262 -193.1 520.448)"/></g><g style="stroke-width:.403886"><path d="m164.516 129.594-38.691 26.91v36.782l38.691-26.911z" style="fill:#093;stroke-width:.403886" transform="matrix(.18262 -.00287 .00287 .18262 -193.1 520.448)"/></g><g style="stroke-width:.403886"><path d="m87.134 130.093 38.697 26.411-.006 36.782-38.691-26.412z" style="fill:#6c3;stroke-width:.403886" transform="matrix(.18262 -.00287 .00287 .18262 -193.1 520.448)"/></g></g><text xml:space="preserve" x="-185.877" y="558.085" style="font-style:normal;font-variant:normal;font-weight:400;font-stretch:normal;font-size:4.23333px;line-height:100%;font-family:&quot;Arial Black&quot;;-inkscape-font-specification:&quot;Arial Black, Normal&quot;;font-variant-ligatures:normal;font-variant-caps:normal;font-variant-numeric:normal;font-feature-settings:normal;text-align:start;letter-spacing:0;word-spacing:0;writing-mode:lr-tb;text-anchor:start;fill:#228b22;fill-opacity:1;stroke:none;stroke-width:.295072px;stroke-linecap:butt;stroke-linejoin:miter;stroke-opacity:1" transform="rotate(-.902)"><tspan x="-185.877" y="558.085">synset</tspan></text><text xml:space="preserve" x="-185.114" y="562.271" style="font-style:normal;font-variant:normal;font-weight:400;font-stretch:normal;font-size:4.23333px;line-height:100%;font-family:&quot;Arial Black&quot;;-inkscape-font-specification:&quot;Arial Black, Normal&quot;;font-variant-ligatures:normal;font-variant-caps:normal;font-variant-numeric:normal;font-feature-settings:normal;text-align:start;letter-spacing:0;word-spacing:0;writing-mode:lr-tb;text-anchor:start;fill:red;fill-opacity:1;stroke:none;stroke-width:.295072px;stroke-linecap:butt;stroke-linejoin:miter;stroke-opacity:1" transform="rotate(-.902)"><tspan x="-185.114" y="562.271">sense</tspan></text><text xml:space="preserve" x="-186.201" y="566.742" style="font-style:normal;font-variant:normal;font-weight:400;font-stretch:normal;font-size:4.23333px;line-height:100%;font-family:&quot;Arial Black&quot;;-inkscape-font-specification:&quot;Arial Black, Normal&quot;;font-variant-ligatures:normal;font-variant-caps:normal;font-variant-numeric:normal;font-feature-settings:normal;text-align:start;letter-spacing:0;word-spacing:0;writing-mode:lr-tb;text-anchor:start;fill:#696969;fill-opacity:1;stroke:none;stroke-width:.295072px;stroke-linecap:butt;stroke-linejoin:miter;stroke-opacity:1" transform="rotate(-.902)"><tspan x="-186.201" y="566.742">lemma</tspan></text><text xml:space="preserve" x="-187.384" y="570.993" style="font-style:normal;font-variant:normal;font-weight:400;font-stretch:normal;font-size:4.23333px;line-height:100%;font-family:&quot;Arial Black&quot;;-inkscape-font-specification:&quot;Arial Black, Normal&quot;;font-variant-ligatures:normal;font-variant-caps:normal;font-variant-numeric:normal;font-feature-settings:normal;text-align:start;letter-spacing:0;word-spacing:0;writing-mode:lr-tb;text-anchor:start;fill:#d2691e;fill-opacity:1;stroke:none;stroke-width:.295072px;stroke-linecap:butt;stroke-linejoin:miter;stroke-opacity:1" transform="rotate(-.902)"><tspan x="-187.384" y="570.993">relation</tspan></text><rect width="37.313" height="62.037" x="-188.593" y="517.07" ry="9.57" style="opacity:.98;fill:none;fill-opacity:1;stroke:#999;stroke-width:.974785;stroke-linejoin:round;stroke-miterlimit:4;stroke-dasharray:none;stroke-opacity:1"/><text xml:space="preserve" x="-172.14" y="523.294" style="font-style:normal;font-variant:normal;font-weight:400;font-stretch:normal;font-size:5.64444px;line-height:100%;font-family:&quot;Arial Black&quot;;-inkscape-font-specification:&quot;Arial Black, Normal&quot;;font-variant-ligatures:normal;font-variant-caps:normal;font-variant-numeric:normal;font-feature-settings:normal;text-align:center;letter-spacing:0;word-spacing:0;writing-mode:lr-tb;text-anchor:middle;fill:#a9a9a9;fill-opacity:1;stroke:none;stroke-width:.295072px;stroke-linecap:butt;stroke-linejoin:miter;stroke-opacity:1" transform="rotate(-.124)"><tspan x="-172.14" y="523.294">model</tspan></text></g></svg>