<svg xmlns="http://www.w3.org/2000/svg" xmlns:xlink="http://www.w3.org/1999/xlink" xml:space="preserve" width="64mm" height="64mm" viewBox="0 0 64 64"><defs><linearGradient id="a" x1="129" x2="129" y1="11" y2="245" gradientUnits="userSpaceOnUse"><stop offset="0" style="stop-color:#494949"/><stop offset="1" style="stop-color:#000"/></linearGradient><linearGradient xlink:href="#a" id="b" x1="129" x2="129" y1="11" y2="245" gradientTransform="matrix(.1366 -.00038 .00038 .1366 -56.332 -222.367)" gradientUnits="userSpaceOnUse"/><linearGradient xlink:href="#a" id="c" x1="129" x2="129" y1="11" y2="245" gradientTransform="matrix(.1366 -.00038 .00038 .1366 -53.11 -219.23)" gradientUnits="userSpaceOnUse"/><linearGradient xlink:href="#a" id="d" x1="129" x2="129" y1="11" y2="245" gradientTransform="matrix(.1366 -.00038 .00038 .1366 -49.92 -215.413)" gradientUnits="userSpaceOnUse"/></defs><g transform="translate(-45.643 82.582)"><path d="M61.593-71.16a2.593 2.593 0 0 0-2.582 2.596l.085 30.466a2.593 2.593 0 0 0 2.596 2.583l26.811-.075a2.593 2.593 0 0 0 2.583-2.597L91-68.654a2.593 2.593 0 0 0-2.597-2.581z" style="opacity:.2;stroke-width:.461228"/><path d="M61.287-71.464a2.593 2.593 0 0 0-2.582 2.596l.085 30.467a2.593 2.593 0 0 0 2.597 2.582l26.81-.075a2.593 2.593 0 0 0 2.583-2.597l-.085-30.466a2.593 2.593 0 0 0-2.597-2.582z" style="opacity:.2;stroke-width:.461228"/><path d="M60.982-71.616A2.593 2.593 0 0 0 58.4-69.02l.085 30.466a2.593 2.593 0 0 0 2.597 2.583l26.81-.075a2.593 2.593 0 0 0 2.583-2.597l-.085-30.466a2.593 2.593 0 0 0-2.597-2.583z" style="opacity:.2;stroke-width:.461228"/><path d="M61.134-71.845a2.593 2.593 0 0 0-2.582 2.597l.085 30.467a2.593 2.593 0 0 0 2.597 2.582l26.81-.075a2.593 2.593 0 0 0 2.583-2.597l-.086-30.466a2.593 2.593 0 0 0-2.596-2.583z" style="fill:url(#b);stroke-width:.461228"/><path d="M59.246-38.783a1.828 1.828 0 0 0 1.833 1.823l26.81-.075a1.828 1.828 0 0 0 1.824-1.833l-.085-30.467a1.828 1.828 0 0 0-1.833-1.823l-26.811.075a1.828 1.828 0 0 0-1.823 1.833z" style="fill:#fff;stroke-width:.461228"/><path d="m54.884-73.503 38.997-.11.11 38.998-38.998.11z" style="fill:none;stroke-width:.461228"/><path d="M59.246-38.783a1.828 1.828 0 0 0 1.833 1.823l26.81-.075a1.828 1.828 0 0 0 1.824-1.833l-.085-30.467a1.828 1.828 0 0 0-1.833-1.823l-26.811.075a1.828 1.828 0 0 0-1.823 1.833z" style="fill:#fff;stroke-width:.461228"/><rect width="25.034" height="14.612" x="61.518" y="43.304" rx="2.364" ry="2.66" style="fill:#a00;fill-opacity:1;stroke:none;stroke-width:.24825" transform="scale(1 -1)rotate(.16)"/><text xml:space="preserve" x="55.762" y="-52.977" style="font-style:normal;font-variant:normal;font-weight:400;font-stretch:condensed;font-size:10.2049px;line-height:100%;font-family:Impact;-inkscape-font-specification:&quot;Impact, Condensed&quot;;font-variant-ligatures:normal;font-variant-caps:normal;font-variant-numeric:normal;font-feature-settings:normal;text-align:start;letter-spacing:0;word-spacing:0;writing-mode:lr-tb;text-anchor:start;fill:#fff;fill-opacity:1;stroke:none;stroke-width:.393754px;stroke-linecap:butt;stroke-linejoin:miter;stroke-opacity:1" transform="matrix(1.11833 -.00312 .0025 .89419 0 0)"><tspan x="55.762" y="-52.977" style="stroke-width:.393754px">YAML</tspan></text><path d="M64.814-68.025a2.593 2.593 0 0 0-2.582 2.597l.085 30.466a2.593 2.593 0 0 0 2.597 2.583l26.81-.075a2.593 2.593 0 0 0 2.583-2.597l-.085-30.467a2.593 2.593 0 0 0-2.597-2.582z" style="opacity:.2;stroke-width:.461228"/><path d="M64.509-68.329a2.593 2.593 0 0 0-2.582 2.597l.085 30.466a2.593 2.593 0 0 0 2.596 2.583l26.81-.075a2.593 2.593 0 0 0 2.584-2.597l-.086-30.467a2.593 2.593 0 0 0-2.597-2.582z" style="opacity:.2;stroke-width:.461228"/><path d="M64.204-68.48a2.593 2.593 0 0 0-2.582 2.597l.085 30.466a2.593 2.593 0 0 0 2.596 2.583l26.81-.075a2.593 2.593 0 0 0 2.583-2.597l-.085-30.467a2.593 2.593 0 0 0-2.597-2.582z" style="opacity:.2;stroke-width:.461228"/><path d="M64.356-68.71a2.593 2.593 0 0 0-2.583 2.598l.085 30.466a2.593 2.593 0 0 0 2.597 2.582l26.81-.074a2.593 2.593 0 0 0 2.583-2.597L93.763-66.2a2.593 2.593 0 0 0-2.597-2.583z" style="fill:url(#c);stroke-width:.461228"/><path d="M62.467-35.647a1.828 1.828 0 0 0 1.833 1.823l26.811-.075a1.828 1.828 0 0 0 1.823-1.833L92.849-66.2a1.828 1.828 0 0 0-1.833-1.823l-26.811.074a1.828 1.828 0 0 0-1.823 1.834z" style="fill:#fff;stroke-width:.461228"/><path d="m58.105-70.368 38.998-.109.109 38.998-38.998.109z" style="fill:none;stroke-width:.461228"/><path d="M62.467-35.647a1.828 1.828 0 0 0 1.833 1.823l26.811-.075a1.828 1.828 0 0 0 1.823-1.833L92.849-66.2a1.828 1.828 0 0 0-1.833-1.823l-26.811.074a1.828 1.828 0 0 0-1.823 1.834z" style="fill:#fff;stroke-width:.461228"/><rect width="25.034" height="14.612" x="64.73" y="40.159" rx="2.364" ry="2.66" style="fill:#a00;fill-opacity:1;stroke:none;stroke-width:.24825" transform="scale(1 -1)rotate(.16)"/><text xml:space="preserve" x="58.634" y="-49.46" style="font-style:normal;font-variant:normal;font-weight:400;font-stretch:condensed;font-size:10.2049px;line-height:100%;font-family:Impact;-inkscape-font-specification:&quot;Impact, Condensed&quot;;font-variant-ligatures:normal;font-variant-caps:normal;font-variant-numeric:normal;font-feature-settings:normal;text-align:start;letter-spacing:0;word-spacing:0;writing-mode:lr-tb;text-anchor:start;fill:#fff;fill-opacity:1;stroke:none;stroke-width:.393754px;stroke-linecap:butt;stroke-linejoin:miter;stroke-opacity:1" transform="matrix(1.11833 -.00312 .0025 .89419 0 0)"><tspan x="58.634" y="-49.46" style="stroke-width:.393754px">YAML</tspan></text><path d="M68.004-64.207a2.593 2.593 0 0 0-2.582 2.597l.085 30.466a2.593 2.593 0 0 0 2.597 2.583l26.81-.075a2.593 2.593 0 0 0 2.583-2.597L97.412-61.7a2.593 2.593 0 0 0-2.597-2.582z" style="opacity:.2;stroke-width:.461228"/><path d="M67.699-64.51a2.593 2.593 0 0 0-2.582 2.596l.085 30.466a2.593 2.593 0 0 0 2.596 2.583l26.811-.075a2.593 2.593 0 0 0 2.583-2.597l-.085-30.467a2.593 2.593 0 0 0-2.597-2.582z" style="opacity:.2;stroke-width:.461228"/><path d="M67.394-64.663a2.593 2.593 0 0 0-2.582 2.598l.085 30.466a2.593 2.593 0 0 0 2.596 2.583l26.811-.075a2.593 2.593 0 0 0 2.583-2.597l-.085-30.467a2.593 2.593 0 0 0-2.598-2.582z" style="opacity:.2;stroke-width:.461228"/><path d="M67.546-64.891a2.593 2.593 0 0 0-2.583 2.597l.085 30.466a2.593 2.593 0 0 0 2.597 2.582l26.811-.074a2.593 2.593 0 0 0 2.582-2.597l-.085-30.466a2.593 2.593 0 0 0-2.596-2.583z" style="fill:url(#d);stroke-width:.461228"/><path d="M65.657-31.83a1.828 1.828 0 0 0 1.833 1.824l26.811-.075a1.828 1.828 0 0 0 1.823-1.833l-.085-30.467a1.828 1.828 0 0 0-1.833-1.823l-26.81.074a1.828 1.828 0 0 0-1.824 1.834z" style="fill:#fff;stroke-width:.461228"/><path d="m61.295-66.55 38.998-.109.109 38.998-38.998.109z" style="fill:none;stroke-width:.461228"/><path d="M65.657-31.83a1.828 1.828 0 0 0 1.833 1.824l26.811-.075a1.828 1.828 0 0 0 1.823-1.833l-.085-30.467a1.828 1.828 0 0 0-1.833-1.823l-26.81.074a1.828 1.828 0 0 0-1.824 1.834z" style="fill:#fff;stroke-width:.461228"/><rect width="25.034" height="14.612" x="67.91" y="36.332" rx="2.364" ry="2.66" style="fill:#a00;fill-opacity:1;stroke:none;stroke-width:.24825" transform="scale(1 -1)rotate(.16)"/><text xml:space="preserve" x="61.478" y="-45.18" style="font-style:normal;font-variant:normal;font-weight:400;font-stretch:condensed;font-size:10.2049px;line-height:100%;font-family:Impact;-inkscape-font-specification:&quot;Impact, Condensed&quot;;font-variant-ligatures:normal;font-variant-caps:normal;font-variant-numeric:normal;font-feature-settings:normal;text-align:start;letter-spacing:0;word-spacing:0;writing-mode:lr-tb;text-anchor:start;fill:#fff;fill-opacity:1;stroke:none;stroke-width:.393754px;stroke-linecap:butt;stroke-linejoin:miter;stroke-opacity:1" transform="matrix(1.11833 -.00312 .0025 .89419 0 0)"><tspan x="61.478" y="-45.18" style="stroke-width:.393754px">YAML</tspan></text></g></svg>