<svg xmlns="http://www.w3.org/2000/svg" xmlns:xlink="http://www.w3.org/1999/xlink" xml:space="preserve" width="64mm" height="64mm" viewBox="0 0 64 64"><defs><linearGradient id="a" x1="129" x2="129" y1="11" y2="245" gradientUnits="userSpaceOnUse"><stop offset="0" style="stop-color:#494949"/><stop offset="1" style="stop-color:#000"/></linearGradient><linearGradient xlink:href="#a" id="b" x1="129" x2="129" y1="11" y2="245" gradientTransform="translate(-101.974 -139.784)scale(.1366)" gradientUnits="userSpaceOnUse"/></defs><path d="m9.241 9.079 38.998-.11.108 38.998-38.997.11Z" style="fill:none;stroke-width:.461228"/><g transform="translate(2.9 3.135)"><path d="M15.95 11.422a2.593 2.593 0 0 0-2.582 2.596l.085 30.467a2.593 2.593 0 0 0 2.597 2.582l26.81-.075a2.593 2.593 0 0 0 2.583-2.597l-.085-30.466a2.593 2.593 0 0 0-2.597-2.582z" style="opacity:.2;stroke-width:.461228"/><path d="M15.645 11.118a2.593 2.593 0 0 0-2.582 2.596l.085 30.467a2.593 2.593 0 0 0 2.596 2.583l26.81-.075a2.593 2.593 0 0 0 2.583-2.597l-.085-30.467a2.593 2.593 0 0 0-2.597-2.582z" style="opacity:.2;stroke-width:.461228"/><path d="M15.34 10.966a2.593 2.593 0 0 0-2.583 2.597l.086 30.467a2.593 2.593 0 0 0 2.596 2.582l26.81-.074a2.593 2.593 0 0 0 2.583-2.598l-.085-30.466a2.593 2.593 0 0 0-2.597-2.583z" style="opacity:.2;stroke-width:.461228"/><path d="M15.491 10.737a2.593 2.593 0 0 0-2.582 2.597l.085 30.467a2.593 2.593 0 0 0 2.597 2.582l26.81-.075a2.593 2.593 0 0 0 2.583-2.596l-.085-30.467a2.593 2.593 0 0 0-2.597-2.583z" style="fill:url(#b);stroke-width:.461228"/><path d="M13.603 43.8a1.828 1.828 0 0 0 1.833 1.822l26.811-.075a1.828 1.828 0 0 0 1.823-1.833l-.085-30.466a1.828 1.828 0 0 0-1.833-1.824L15.34 11.5a1.828 1.828 0 0 0-1.823 1.834z" style="fill:#fff;stroke-width:.461228"/><path d="M13.603 43.8a1.828 1.828 0 0 0 1.833 1.822l26.811-.075a1.828 1.828 0 0 0 1.823-1.833l-.085-30.466a1.828 1.828 0 0 0-1.833-1.824L15.34 11.5a1.828 1.828 0 0 0-1.823 1.834z" style="fill:#fff;stroke-width:.461228"/><rect width="25.034" height="14.612" x="15.644" y="-39.151" rx="2.364" ry="2.66" style="fill:#a00;fill-opacity:1;stroke:none;stroke-width:.24825" transform="scale(1 -1)rotate(.16)"/><text xml:space="preserve" x="14.742" y="39.235" style="font-style:normal;font-variant:normal;font-weight:400;font-stretch:condensed;font-size:10.2049px;line-height:100%;font-family:Impact;-inkscape-font-specification:&quot;Impact, Condensed&quot;;font-variant-ligatures:normal;font-variant-caps:normal;font-variant-numeric:normal;font-feature-settings:normal;text-align:start;letter-spacing:0;word-spacing:0;writing-mode:lr-tb;text-anchor:start;fill:#fff;fill-opacity:1;stroke:none;stroke-width:.393754px;stroke-linecap:butt;stroke-linejoin:miter;stroke-opacity:1" transform="matrix(1.11833 -.00312 .0025 .89419 0 0)"><tspan x="14.742" y="39.235" style="stroke-width:.393754px">YAML</tspan></text></g><path d="m12.462 12.215 38.998-.11.109 38.998-38.998.11z" style="fill:none;stroke-width:.461228"/><path d="m15.653 16.033 38.997-.11.109 38.998-38.998.11z" style="fill:none;stroke-width:.461228"/></svg>