<svg xmlns="http://www.w3.org/2000/svg" xmlns:xlink="http://www.w3.org/1999/xlink" xml:space="preserve" width="64mm" height="64mm" viewBox="0 0 64 64"><defs><linearGradient id="a" x1="129" x2="129" y1="11" y2="245" gradientUnits="userSpaceOnUse"><stop offset="0" style="stop-color:#494949"/><stop offset="1" style="stop-color:#000"/></linearGradient><linearGradient id="b"><stop offset="0" style="stop-color:#000;stop-opacity:1"/><stop offset="1" style="stop-color:#000;stop-opacity:0"/></linearGradient><linearGradient id="c" x1="48" x2="48" y1="90" y2="5.988" gradientTransform="translate(0 -96)" gradientUnits="userSpaceOnUse"><stop offset="0" style="stop-color:#80a2c8"/><stop offset="1" style="stop-color:#2e4c6d"/></linearGradient><linearGradient xlink:href="#a" id="d" x1="129" x2="129" y1="11" y2="245" gradientTransform="translate(-110.52 130.54)scale(.23151)" gradientUnits="userSpaceOnUse"/><linearGradient xlink:href="#b" id="e" x1="20.781" x2="20.813" y1="24.594" y2="23.531" gradientUnits="userSpaceOnUse"/><linearGradient xlink:href="#c" id="f" x1="48" x2="48" y1="1052.362" y2="902.362" gradientTransform="matrix(.47898 0 0 .27988 -65.251 -537.565)" gradientUnits="userSpaceOnUse"/><linearGradient xlink:href="#a" id="g" x1="129" x2="129" y1="11" y2="245" gradientTransform="translate(-110.52 130.54)scale(.23151)" gradientUnits="userSpaceOnUse"/><linearGradient xlink:href="#b" id="h" x1="20.781" x2="20.813" y1="24.594" y2="23.531" gradientUnits="userSpaceOnUse"/><linearGradient xlink:href="#c" id="i" x1="48" x2="48" y1="1052.362" y2="902.362" gradientTransform="matrix(.47898 0 0 .27988 -65.251 -537.565)" gradientUnits="userSpaceOnUse"/><linearGradient xlink:href="#a" id="j" x1="129" x2="129" y1="11" y2="245" gradientTransform="translate(-110.52 130.54)scale(.23151)" gradientUnits="userSpaceOnUse"/><linearGradient xlink:href="#b" id="k" x1="20.781" x2="20.813" y1="24.594" y2="23.531" gradientUnits="userSpaceOnUse"/><linearGradient xlink:href="#c" id="l" x1="48" x2="48" y1="1052.362" y2="902.362" gradientTransform="matrix(.47898 0 0 .27988 -65.251 -537.565)" gradientUnits="userSpaceOnUse"/></defs><g style="stroke-width:3.02775"><g style="stroke-width:3.02775"><path d="M-100.334 134.128a3.94 3.94 0 0 0-3.935 3.935v46.302a3.94 3.94 0 0 0 3.935 3.936h40.746a3.94 3.94 0 0 0 3.936-3.936v-46.302a3.94 3.94 0 0 0-3.936-3.935z" style="opacity:.2;stroke-width:.700955" transform="matrix(.6566 0 0 .67367 80.294 -79.94)"/><path d="M-100.797 133.665a3.94 3.94 0 0 0-3.935 3.935v46.302a3.94 3.94 0 0 0 3.935 3.936h40.746a3.94 3.94 0 0 0 3.936-3.936V137.6a3.94 3.94 0 0 0-3.936-3.935z" style="opacity:.2;stroke-width:.700955" transform="matrix(.6566 0 0 .67367 80.294 -79.94)"/><path d="M-101.26 133.433a3.94 3.94 0 0 0-3.935 3.936v46.302a3.94 3.94 0 0 0 3.935 3.936h40.746a3.94 3.94 0 0 0 3.936-3.936v-46.302a3.94 3.94 0 0 0-3.936-3.936z" style="opacity:.2;stroke-width:.700955" transform="matrix(.6566 0 0 .67367 80.294 -79.94)"/><path d="M-101.028 133.086a3.94 3.94 0 0 0-3.936 3.936v46.302a3.94 3.94 0 0 0 3.936 3.935h40.746a3.94 3.94 0 0 0 3.935-3.935v-46.302a3.94 3.94 0 0 0-3.935-3.936z" style="fill:url(#d);stroke-width:.700955" transform="matrix(.6566 0 0 .67367 80.294 -79.94)"/><path d="M-104.038 183.324a2.778 2.778 0 0 0 2.778 2.778h40.746a2.778 2.778 0 0 0 2.778-2.778v-46.302a2.778 2.778 0 0 0-2.778-2.779h-40.746a2.778 2.778 0 0 0-2.778 2.779z" style="fill:#fff;stroke-width:.700955" transform="matrix(.6566 0 0 .67367 80.294 -79.94)"/><path d="M-110.52 130.539h59.267v59.267h-59.267z" style="fill:none;stroke-width:.700955" transform="matrix(.6566 0 0 .67367 80.294 -79.94)"/><path d="M11.781 19.5c-.179 0-.27.018-.304.027-.034.01-.014-.001-.043.022-.006.004-.109.1-.211.396L9.803 24.5H37.12l-1.43-4.344c-.191-.476-.262-.517-.314-.552-.07-.048-.143-.104-.565-.104Z" style="color:#000;display:block;overflow:visible;visibility:visible;opacity:.15;fill:none;stroke:url(#e);stroke-width:3.02775;stroke-linecap:butt;stroke-linejoin:miter;stroke-miterlimit:4;stroke-dashoffset:0;stroke-opacity:1;marker:none" transform="matrix(.152 0 0 .15596 7.727 8.156)"/><path d="M-104.038 183.324a2.778 2.778 0 0 0 2.778 2.778h40.746a2.778 2.778 0 0 0 2.778-2.778v-46.302a2.778 2.778 0 0 0-2.778-2.779h-40.746a2.778 2.778 0 0 0-2.778 2.779z" style="fill:#fff;stroke-width:.700955" transform="matrix(.6566 0 0 .67367 80.294 -79.94)"/></g><g style="stroke-width:3.02775" transform="matrix(.6566 0 0 .67367 55.091 -136.756)"><rect width="38.046" height="22.207" x="-61.419" y="-267.66" rx="3.593" ry="4.043" style="fill:url(#f);fill-opacity:1;stroke:none;stroke-width:.377279" transform="scale(1 -1)"/><text xml:space="preserve" x="-53.482" y="261.839" style="font-style:normal;font-variant:normal;font-weight:400;font-stretch:condensed;font-size:13.8677px;line-height:100%;font-family:Impact;-inkscape-font-specification:&quot;Impact, Condensed&quot;;font-variant-ligatures:normal;font-variant-caps:normal;font-variant-numeric:normal;font-feature-settings:normal;text-align:start;letter-spacing:0;word-spacing:0;writing-mode:lr-tb;text-anchor:start;fill:#fff;fill-opacity:1;stroke:none;stroke-width:.53509px;stroke-linecap:butt;stroke-linejoin:miter;stroke-opacity:1"><tspan x="-53.482" y="261.839" style="stroke-width:.53509px">XML</tspan></text></g></g><g style="stroke-width:3.02775"><g style="stroke-width:3.02775"><path d="M-100.334 134.128a3.94 3.94 0 0 0-3.935 3.935v46.302a3.94 3.94 0 0 0 3.935 3.936h40.746a3.94 3.94 0 0 0 3.936-3.936v-46.302a3.94 3.94 0 0 0-3.936-3.935z" style="opacity:.2;stroke-width:.700955" transform="matrix(.6566 0 0 .67367 84.811 -76.376)"/><path d="M-100.797 133.665a3.94 3.94 0 0 0-3.935 3.935v46.302a3.94 3.94 0 0 0 3.935 3.936h40.746a3.94 3.94 0 0 0 3.936-3.936V137.6a3.94 3.94 0 0 0-3.936-3.935z" style="opacity:.2;stroke-width:.700955" transform="matrix(.6566 0 0 .67367 84.811 -76.376)"/><path d="M-101.26 133.433a3.94 3.94 0 0 0-3.935 3.936v46.302a3.94 3.94 0 0 0 3.935 3.936h40.746a3.94 3.94 0 0 0 3.936-3.936v-46.302a3.94 3.94 0 0 0-3.936-3.936z" style="opacity:.2;stroke-width:.700955" transform="matrix(.6566 0 0 .67367 84.811 -76.376)"/><path d="M-101.028 133.086a3.94 3.94 0 0 0-3.936 3.936v46.302a3.94 3.94 0 0 0 3.936 3.935h40.746a3.94 3.94 0 0 0 3.935-3.935v-46.302a3.94 3.94 0 0 0-3.935-3.936z" style="fill:url(#g);stroke-width:.700955" transform="matrix(.6566 0 0 .67367 84.811 -76.376)"/><path d="M-104.038 183.324a2.778 2.778 0 0 0 2.778 2.778h40.746a2.778 2.778 0 0 0 2.778-2.778v-46.302a2.778 2.778 0 0 0-2.778-2.779h-40.746a2.778 2.778 0 0 0-2.778 2.779z" style="fill:#fff;stroke-width:.700955" transform="matrix(.6566 0 0 .67367 84.811 -76.376)"/><path d="M-110.52 130.539h59.267v59.267h-59.267z" style="fill:none;stroke-width:.700955" transform="matrix(.6566 0 0 .67367 84.811 -76.376)"/><path d="M11.781 19.5c-.179 0-.27.018-.304.027-.034.01-.014-.001-.043.022-.006.004-.109.1-.211.396L9.803 24.5H37.12l-1.43-4.344c-.191-.476-.262-.517-.314-.552-.07-.048-.143-.104-.565-.104Z" style="color:#000;display:block;overflow:visible;visibility:visible;opacity:.15;fill:none;stroke:url(#h);stroke-width:3.02775;stroke-linecap:butt;stroke-linejoin:miter;stroke-miterlimit:4;stroke-dashoffset:0;stroke-opacity:1;marker:none" transform="matrix(.152 0 0 .15596 12.244 11.72)"/><path d="M-104.038 183.324a2.778 2.778 0 0 0 2.778 2.778h40.746a2.778 2.778 0 0 0 2.778-2.778v-46.302a2.778 2.778 0 0 0-2.778-2.779h-40.746a2.778 2.778 0 0 0-2.778 2.779z" style="fill:#fff;stroke-width:.700955" transform="matrix(.6566 0 0 .67367 84.811 -76.376)"/></g><g style="stroke-width:3.02775" transform="matrix(.6566 0 0 .67367 59.607 -133.19)"><rect width="38.046" height="22.207" x="-61.419" y="-267.66" rx="3.593" ry="4.043" style="fill:url(#i);fill-opacity:1;stroke:none;stroke-width:.377279" transform="scale(1 -1)"/><text xml:space="preserve" x="-53.482" y="261.839" style="font-style:normal;font-variant:normal;font-weight:400;font-stretch:condensed;font-size:13.8677px;line-height:100%;font-family:Impact;-inkscape-font-specification:&quot;Impact, Condensed&quot;;font-variant-ligatures:normal;font-variant-caps:normal;font-variant-numeric:normal;font-feature-settings:normal;text-align:start;letter-spacing:0;word-spacing:0;writing-mode:lr-tb;text-anchor:start;fill:#fff;fill-opacity:1;stroke:none;stroke-width:.53509px;stroke-linecap:butt;stroke-linejoin:miter;stroke-opacity:1"><tspan x="-53.482" y="261.839" style="stroke-width:.53509px">XML</tspan></text></g></g><g style="stroke-width:3.02775"><g style="stroke-width:3.02775"><path d="M-100.334 134.128a3.94 3.94 0 0 0-3.935 3.935v46.302a3.94 3.94 0 0 0 3.935 3.936h40.746a3.94 3.94 0 0 0 3.936-3.936v-46.302a3.94 3.94 0 0 0-3.936-3.935z" style="opacity:.2;stroke-width:.700955" transform="matrix(.6566 0 0 .67367 89.926 -71.866)"/><path d="M-100.797 133.665a3.94 3.94 0 0 0-3.935 3.935v46.302a3.94 3.94 0 0 0 3.935 3.936h40.746a3.94 3.94 0 0 0 3.936-3.936V137.6a3.94 3.94 0 0 0-3.936-3.935z" style="opacity:.2;stroke-width:.700955" transform="matrix(.6566 0 0 .67367 89.926 -71.866)"/><path d="M-101.26 133.433a3.94 3.94 0 0 0-3.935 3.936v46.302a3.94 3.94 0 0 0 3.935 3.936h40.746a3.94 3.94 0 0 0 3.936-3.936v-46.302a3.94 3.94 0 0 0-3.936-3.936z" style="opacity:.2;stroke-width:.700955" transform="matrix(.6566 0 0 .67367 89.926 -71.866)"/><path d="M-101.028 133.086a3.94 3.94 0 0 0-3.936 3.936v46.302a3.94 3.94 0 0 0 3.936 3.935h40.746a3.94 3.94 0 0 0 3.935-3.935v-46.302a3.94 3.94 0 0 0-3.935-3.936z" style="fill:url(#j);stroke-width:.700955" transform="matrix(.6566 0 0 .67367 89.926 -71.866)"/><path d="M-104.038 183.324a2.778 2.778 0 0 0 2.778 2.778h40.746a2.778 2.778 0 0 0 2.778-2.778v-46.302a2.778 2.778 0 0 0-2.778-2.779h-40.746a2.778 2.778 0 0 0-2.778 2.779z" style="fill:#fff;stroke-width:.700955" transform="matrix(.6566 0 0 .67367 89.926 -71.866)"/><path d="M-110.52 130.539h59.267v59.267h-59.267z" style="fill:none;stroke-width:.700955" transform="matrix(.6566 0 0 .67367 89.926 -71.866)"/><path d="M11.781 19.5c-.179 0-.27.018-.304.027-.034.01-.014-.001-.043.022-.006.004-.109.1-.211.396L9.803 24.5H37.12l-1.43-4.344c-.191-.476-.262-.517-.314-.552-.07-.048-.143-.104-.565-.104Z" style="color:#000;display:block;overflow:visible;visibility:visible;opacity:.15;fill:none;stroke:url(#k);stroke-width:3.02775;stroke-linecap:butt;stroke-linejoin:miter;stroke-miterlimit:4;stroke-dashoffset:0;stroke-opacity:1;marker:none" transform="matrix(.152 0 0 .15596 17.358 16.23)"/><path d="M-104.038 183.324a2.778 2.778 0 0 0 2.778 2.778h40.746a2.778 2.778 0 0 0 2.778-2.778v-46.302a2.778 2.778 0 0 0-2.778-2.779h-40.746a2.778 2.778 0 0 0-2.778 2.779z" style="fill:#fff;stroke-width:.700955" transform="matrix(.6566 0 0 .67367 89.926 -71.866)"/></g><g style="stroke-width:3.02775" transform="matrix(.6566 0 0 .67367 64.722 -128.68)"><rect width="38.046" height="22.207" x="-61.419" y="-267.66" rx="3.593" ry="4.043" style="fill:url(#l);fill-opacity:1;stroke:none;stroke-width:.377279" transform="scale(1 -1)"/><text xml:space="preserve" x="-53.482" y="261.839" style="font-style:normal;font-variant:normal;font-weight:400;font-stretch:condensed;font-size:13.8677px;line-height:100%;font-family:Impact;-inkscape-font-specification:&quot;Impact, Condensed&quot;;font-variant-ligatures:normal;font-variant-caps:normal;font-variant-numeric:normal;font-feature-settings:normal;text-align:start;letter-spacing:0;word-spacing:0;writing-mode:lr-tb;text-anchor:start;fill:#fff;fill-opacity:1;stroke:none;stroke-width:.53509px;stroke-linecap:butt;stroke-linejoin:miter;stroke-opacity:1"><tspan x="-53.482" y="261.839" style="stroke-width:.53509px">XML</tspan></text></g></g></svg>