<svg xmlns="http://www.w3.org/2000/svg" xmlns:xlink="http://www.w3.org/1999/xlink" xml:space="preserve" width="64mm" height="64mm" viewBox="0 0 64 64"><defs><linearGradient id="a" x1="129" x2="129" y1="11" y2="245" gradientUnits="userSpaceOnUse"><stop offset="0" style="stop-color:#494949"/><stop offset="1" style="stop-color:#000"/></linearGradient><linearGradient xlink:href="#a" id="b" x1="129" x2="129" y1="11" y2="245" gradientTransform="translate(-110.52 130.54)scale(.23151)" gradientUnits="userSpaceOnUse"/></defs><g style="stroke-width:3.02775"><g style="stroke-width:3.02775"><path d="M-100.334 134.128a3.94 3.94 0 0 0-3.935 3.935v46.302a3.94 3.94 0 0 0 3.935 3.936h40.746a3.94 3.94 0 0 0 3.936-3.936v-46.302a3.94 3.94 0 0 0-3.936-3.935z" style="opacity:.2;stroke-width:.700955" transform="translate(79.724 -62.503)scale(.59001)"/><path d="M-100.797 133.665a3.94 3.94 0 0 0-3.935 3.935v46.302a3.94 3.94 0 0 0 3.935 3.936h40.746a3.94 3.94 0 0 0 3.936-3.936V137.6a3.94 3.94 0 0 0-3.936-3.935z" style="opacity:.2;stroke-width:.700955" transform="translate(79.724 -62.503)scale(.59001)"/><path d="M-101.26 133.433a3.94 3.94 0 0 0-3.935 3.936v46.302a3.94 3.94 0 0 0 3.935 3.936h40.746a3.94 3.94 0 0 0 3.936-3.936v-46.302a3.94 3.94 0 0 0-3.936-3.936z" style="opacity:.2;stroke-width:.700955" transform="translate(79.724 -62.503)scale(.59001)"/><path d="M-101.028 133.086a3.94 3.94 0 0 0-3.936 3.936v46.302a3.94 3.94 0 0 0 3.936 3.935h40.746a3.94 3.94 0 0 0 3.935-3.935v-46.302a3.94 3.94 0 0 0-3.935-3.936z" style="fill:url(#b);stroke-width:.700955" transform="translate(79.724 -62.503)scale(.59001)"/><path d="M-104.038 183.324a2.778 2.778 0 0 0 2.778 2.778h40.746a2.778 2.778 0 0 0 2.778-2.778v-46.302a2.778 2.778 0 0 0-2.778-2.779h-40.746a2.778 2.778 0 0 0-2.778 2.779z" style="fill:#fff;stroke-width:.700955" transform="translate(79.724 -62.503)scale(.59001)"/><path d="M-110.52 130.539h59.267v59.267h-59.267z" style="fill:none;stroke-width:.700955" transform="translate(79.724 -62.503)scale(.59001)"/><path d="M-104.038 183.324a2.778 2.778 0 0 0 2.778 2.778h40.746a2.778 2.778 0 0 0 2.778-2.778v-46.302a2.778 2.778 0 0 0-2.778-2.779h-40.746a2.778 2.778 0 0 0-2.778 2.779z" style="fill:#fff;stroke-width:.700955" transform="translate(79.724 -62.503)scale(.59001)"/></g><g style="stroke-width:3.02775" transform="translate(57.076 -112.262)scale(.59001)"><rect width="38.046" height="22.207" x="-61.419" y="-267.66" rx="3.593" ry="4.043" style="fill:#8b4513;fill-opacity:1;stroke:none;stroke-width:.377279" transform="scale(1 -1)"/><text xml:space="preserve" x="-67.88" y="224.329" style="font-style:normal;font-variant:normal;font-weight:400;font-stretch:condensed;font-size:11.8811px;line-height:100%;font-family:Impact;-inkscape-font-specification:&quot;Impact, Condensed&quot;;font-variant-ligatures:normal;font-variant-caps:normal;font-variant-numeric:normal;font-feature-settings:normal;text-align:start;letter-spacing:0;word-spacing:0;writing-mode:lr-tb;text-anchor:start;fill:#fff;fill-opacity:1;stroke:none;stroke-width:.458435px;stroke-linecap:butt;stroke-linejoin:miter;stroke-opacity:1" transform="scale(.85674 1.16721)"><tspan x="-67.88" y="224.329" style="stroke-width:.458435px">Sqlite3</tspan></text></g></g></svg>